<?xml version="1.0" encoding="UTF-8" standalone="no" ?>
<!DOCTYPE svg PUBLIC "-//W3C//DTD SVG 1.1//EN" "http://www.w3.org/Graphics/SVG/1.1/DTD/svg11.dtd">
<svg xmlns="http://www.w3.org/2000/svg" xmlns:xlink="http://www.w3.org/1999/xlink" version="1.1" width="1080" height="1080" viewBox="0 0 1080 1080" xml:space="preserve">
<defs>
</defs>
<rect x="0" y="0" width="100%" height="100%" fill="transparent"></rect>
<g transform="matrix(1 0 0 1 540 540)" id="28ffb1e5-cb96-4149-b68b-860ae02e913e"  >
<rect style="stroke: none; stroke-width: 1; stroke-dasharray: none; stroke-linecap: butt; stroke-dashoffset: 0; stroke-linejoin: miter; stroke-miterlimit: 4; fill: rgb(255,255,255); fill-rule: nonzero; opacity: 1; visibility: hidden;" vector-effect="non-scaling-stroke"  x="-540" y="-540" rx="0" ry="0" width="1080" height="1080" />
</g>
<g transform="matrix(1 0 0 1 540 540)" id="19afcd56-2009-417e-baa1-33f2fd99b7a5"  >
</g>
<g transform="matrix(1 0 0 1 540 540)"  >
<g style="" vector-effect="non-scaling-stroke"   >
		<g transform="matrix(1 0 0 1 300.34 307.31)"  >
<path style="stroke: none; stroke-width: 1; stroke-dasharray: none; stroke-linecap: butt; stroke-dashoffset: 0; stroke-linejoin: miter; stroke-miterlimit: 4; fill: rgb(240,240,240); fill-rule: nonzero; opacity: 1;" vector-effect="non-scaling-stroke"  transform=" translate(-900.34, -757.31)" d="M 925.98958 752.22561 L 912.16542 764.9523899999999 L 923.1518000000001 746.5181299999999 C 914.4961500000001 730.8217599999999 900.3399400000001 717.25627 900.3399400000001 717.25627 C 900.3399400000001 717.25627 870.97072 745.39427 870.97072 767.51263 C 870.97072 789.6309899999999 884.11972 797.35385 900.3399400000001 797.35385 C 916.5599400000001 797.35385 929.7089400000001 789.63096 929.7089400000001 767.51263 C 929.5261272951849 762.216428136567 928.2603219420479 757.0138148510791 925.98958 752.22561 Z" stroke-linecap="round" />
</g>
		<g transform="matrix(1 0 0 1 304.39 306.29)"  >
<path style="stroke: none; stroke-width: 1; stroke-dasharray: none; stroke-linecap: butt; stroke-dashoffset: 0; stroke-linejoin: miter; stroke-miterlimit: 4; fill: rgb(255,255,255); fill-rule: nonzero; opacity: 1;" vector-effect="non-scaling-stroke"  transform=" translate(-904.39, -756.29)" d="M 908.61024 765.64138 L 908.61024 766.7316000000001 C 908.54547 779.40439 906.40818 789.29218 902.21449 796.2546000000001 C 902.15513 796.35715 902.09037 796.4543000000001 902.0309699999999 796.5568400000001 L 901.5614099999999 796.2708400000001 L 901.1134699999999 795.9901700000001 C 905.7658999999999 788.4717900000002 907.4120599999999 777.8445800000002 907.4714199999999 766.7910000000002 C 907.4768199999999 766.4347600000002 907.4822299999998 766.0731500000002 907.4768199999999 765.7115500000002 C 907.4606199999998 761.0321000000002 907.1745799999999 756.2987200000002 906.7158199999999 751.7002400000002 C 906.6834299999999 751.3440000000003 906.6456499999999 750.9824000000002 906.60782 750.6207900000003 C 905.9709499999999 744.5542700000003 905.05341 738.7576200000003 904.11429 733.7219700000003 C 904.04953 733.3657300000003 903.9793599999999 733.0095200000003 903.90919 732.6586900000003 C 902.2846099999999 724.1418300000004 900.62765 717.9727600000003 900.24983 716.6072400000003 C 900.20668 716.4399200000003 900.17967 716.3481800000003 900.17426 716.3266000000003 L 900.68701 716.1808700000004 L 900.69241 716.1754600000004 L 901.21056 716.0297300000004 C 901.21596 716.0513400000004 901.30771 716.3589800000004 901.45881 716.9310900000004 C 902.03633 719.0683900000004 903.53681 724.8704400000004 905.01022 732.5237600000004 C 905.07499 732.8691900000003 905.1451500000001 733.2254300000004 905.20992 733.5816300000004 C 905.97632 737.6673600000004 906.72655 742.2334600000004 907.32027 747.0262000000004 Q 907.54692 748.8316200000004 907.7250600000001 750.5884100000004 C 907.7682100000001 750.9500200000004 907.8060000000002 751.3116200000004 907.8383800000001 751.6678600000004 Q 908.58329 759.12419 908.61024 765.64138 Z" stroke-linecap="round" />
</g>
		<g transform="matrix(1 0 0 1 300.74 281.94)"  >
<path style="stroke: none; stroke-width: 1; stroke-dasharray: none; stroke-linecap: butt; stroke-dashoffset: 0; stroke-linejoin: miter; stroke-miterlimit: 4; fill: rgb(255,255,255); fill-rule: nonzero; opacity: 1;" vector-effect="non-scaling-stroke"  transform=" translate(-900.74, -731.94)" d="M 905.01027 732.52376 C 904.64866 732.57235 904.28165 732.62094 903.90927 732.6586900000001 C 902.8979214520514 732.762807437057 901.8819038063253 732.8150558823116 900.86521 732.81523 C 896.5323266344244 732.8209792530355 892.2533585236009 731.8545246362473 888.34356 729.98707 C 888.11688 730.27307 887.8902 730.55918 887.65813 730.85062 C 891.7710731559325 732.8582741501685 896.288425791276 733.8994651222187 900.86521 733.89468 C 901.9505494273989 733.8943818788753 903.0351149052401 733.8367315004149 904.11437 733.7219699999999 C 904.48137 733.68418 904.84837 733.63559 905.21 733.5816299999999 C 908.1949701533126 733.1534817126925 911.0976096096172 732.2745005094071 913.8186400000001 730.9747499999999 Q 913.4705200000001 730.5294799999998 913.13858 730.1003899999998 C 910.5632581313752 731.3040303617789 907.8242570000367 732.1206346954783 905.01027 732.52376 Z" stroke-linecap="round" />
</g>
		<g transform="matrix(1 0 0 1 302.78 294.92)"  >
<path style="stroke: none; stroke-width: 1; stroke-dasharray: none; stroke-linecap: butt; stroke-dashoffset: 0; stroke-linejoin: miter; stroke-miterlimit: 4; fill: rgb(255,255,255); fill-rule: nonzero; opacity: 1;" vector-effect="non-scaling-stroke"  transform=" translate(-902.78, -744.92)" d="M 907.72511 750.58841 Q 907.1664999999999 750.62078 906.6078699999999 750.6207899999999 C 906.49452 750.62619 906.3757899999999 750.62619 906.26244 750.62619 C 896.7332287588632 750.6263275372264 887.8069697373446 745.963628781292 882.36335 738.1423199999999 C 882.14748 738.4607399999999 881.9315799999999 738.7792 881.72111 739.1030199999999 C 887.392514965718 747.0134239426437 896.529027202862 751.7052638653406 906.26244 751.7056399999999 C 906.41358 751.7056399999999 906.5646899999999 751.7056399999999 906.71583 751.7002399999999 C 907.09361 751.6948399999999 907.46602 751.6840299999999 907.83843 751.6678599999999 C 913.6011347272278 751.3726628309465 919.1568725960909 749.4239381887886 923.84133 746.0546999999999 C 923.66861 745.73628 923.4958899999999 745.4178199999999 923.31777 745.0994 C 918.7650500023193 748.4073326915922 913.3460443435202 750.314959501335 907.72511 750.58841 Z" stroke-linecap="round" />
</g>
		<g transform="matrix(1 0 0 1 303.04 305.78)"  >
<path style="stroke: none; stroke-width: 1; stroke-dasharray: none; stroke-linecap: butt; stroke-dashoffset: 0; stroke-linejoin: miter; stroke-miterlimit: 4; fill: rgb(255,255,255); fill-rule: nonzero; opacity: 1;" vector-effect="non-scaling-stroke"  transform=" translate(-903.04, -755.78)" d="M 908.61024 765.64138 C 908.23245 765.67376 907.85464 765.69538 907.47682 765.71155 C 907.0720299999999 765.72772 906.66724 765.73855 906.26244 765.73855 C 893.3046657954279 765.7236108273804 881.9070824838068 757.1699190283164 878.27225 744.73239 C 878.02937 745.1696000000001 877.78648 745.60139 877.55441 746.03855 C 881.6439644094108 758.4292482691465 893.2142812039841 766.8040892549401 906.2624099999999 766.81801 C 906.66721 766.81801 907.0719999999999 766.8126 907.4714099999999 766.7910099999999 C 907.8546299999999 766.7801999999999 908.2324099999998 766.7586299999999 908.6102299999999 766.7316099999999 C 916.241428027109 766.1346239553586 923.3605955917594 762.6599301309692 928.5261299999999 757.01114 C 928.4127799999999 756.6117499999999 928.2832499999998 756.21776 928.1537199999999 755.81837 C 923.1643956649497 761.5094524261946 916.1542156442574 765.0329328117277 908.61024 765.64138 Z" stroke-linecap="round" />
</g>
		<g transform="matrix(1 0 0 1 216.08 -191.45)"  >
<path style="stroke: none; stroke-width: 1; stroke-dasharray: none; stroke-linecap: butt; stroke-dashoffset: 0; stroke-linejoin: miter; stroke-miterlimit: 4; fill: rgb(240,240,240); fill-rule: nonzero; opacity: 1;" vector-effect="non-scaling-stroke"  transform=" translate(-816.08, -258.55)" d="M 810.39186 274.11505 L 810.97164 263.08063 L 813.93151 275.34799 C 824.024 278.38871 835.55306 278.27205 835.55306 278.27205 C 835.55306 278.27205 836.33249 254.36704999999998 827.2388699999999 245.06762999999998 C 818.1452499999998 235.76820999999998 809.4417799999999 237.92723999999998 802.6221599999999 244.59595 C 795.80266 251.26454999999999 793.4494699999999 259.91754 802.5430899999999 269.21695 C 804.7973954154094 271.3685207558988 807.4685586755087 273.0354857407681 810.39186 274.11505 Z" stroke-linecap="round" />
</g>
		<g transform="matrix(1 0 0 1 219.12 -187.68)"  >
<path style="stroke: none; stroke-width: 1; stroke-dasharray: none; stroke-linecap: butt; stroke-dashoffset: 0; stroke-linejoin: miter; stroke-miterlimit: 4; fill: rgb(255,255,255); fill-rule: nonzero; opacity: 1;" vector-effect="non-scaling-stroke"  transform=" translate(-819.12, -262.32)" d="M 812.18311 261.3293 L 811.7348800000001 260.87092 C 806.5518800000001 255.51617000000002 803.3852700000001 250.48025 802.2859500000001 245.8288 C 802.2687500000001 245.76127 802.2560400000001 245.6938 802.2388500000001 245.62627 L 802.5538500000001 245.55348 L 802.8575800000001 245.48731 C 803.9925800000001 250.56111 807.6696900000001 255.70599 812.1892400000002 260.37774 C 812.3334300000001 260.52974 812.4798300000001 260.684 812.6307700000001 260.83381 C 814.5614700000001 262.79457 816.62777 264.66706000000005 818.7112600000002 266.41181 C 818.8713400000001 266.54827 819.0358900000001 266.68481 819.2004500000002 266.82127 C 821.9623700000002 269.11002 824.7313400000002 271.16993 827.1965200000002 272.901 C 827.3702100000002 273.02415 827.5461600000002 273.14507000000003 827.7199000000002 273.26372000000003 C 831.9045100000002 276.17662 835.1374800000002 278.08910000000003 835.8577400000001 278.50788000000006 C 835.9446800000002 278.56048000000004 835.9937400000001 278.58795000000003 836.0049000000001 278.5948000000001 L 835.8492400000001 278.8668800000001 L 835.8492400000001 278.8713800000001 L 835.6913000000001 279.1456800000001 C 835.68015 279.1388100000001 835.5150900000001 279.04719000000006 835.2163 278.8687700000001 C 834.09478 278.2076100000001 831.0785000000001 276.3850900000001 827.3124700000001 273.7731300000001 C 827.14322 273.6545200000001 826.9672600000001 273.5335900000001 826.79358 273.4104600000001 C 824.7915800000001 272.0077500000001 822.59887 270.3964600000001 820.37878 268.6254600000001 Q 819.54121 267.9595800000001 818.74404 267.2942000000001 C 818.57723 267.1599100000001 818.41267 267.0234100000001 818.2526 266.8869400000001 Q 814.87388 264.0583 812.18311 261.3293 Z" stroke-linecap="round" />
</g>
		<g transform="matrix(1 0 0 1 229.8 -177.26)"  >
<path style="stroke: none; stroke-width: 1; stroke-dasharray: none; stroke-linecap: butt; stroke-dashoffset: 0; stroke-linejoin: miter; stroke-miterlimit: 4; fill: rgb(255,255,255); fill-rule: nonzero; opacity: 1;" vector-effect="non-scaling-stroke"  transform=" translate(-829.8, -272.74)" d="M 827.31248 273.77315 C 827.4445400000001 273.60405 827.5788600000001 273.43273 827.71992 273.26374 C 828.1023230401061 272.80416569379605 828.5080145069658 272.3644796931722 828.9354 271.94640999999996 C 830.7547487021982 270.1625992409732 832.9511353090261 268.80970759739563 835.3627399999999 267.98740999999995 C 835.34044 267.77394999999996 835.3181299999999 267.5604799999999 835.2958899999999 267.34252999999995 C 832.7412335937887 268.1894121627912 830.4138934959357 269.6088957199434 828.4915999999998 271.49258 C 828.0354054905351 271.93892718766085 827.6031161008401 272.4090693539 827.1965399999998 272.90103999999997 C 827.0577699999998 273.06782 826.9234399999998 273.23913999999996 826.7935399999998 273.41049999999996 C 825.7145671986452 274.8177308210625 824.8555667118993 276.38066380016966 824.2459199999997 278.04583999999994 Q 824.5753499999997 278.0899299999999 824.8913199999997 278.13383999999996 C 825.4792353352115 276.5689814797821 826.2950952783358 275.0995567844367 827.31248 273.77315 Z" stroke-linecap="round" />
</g>
		<g transform="matrix(1 0 0 1 224.18 -181.41)"  >
<path style="stroke: none; stroke-width: 1; stroke-dasharray: none; stroke-linecap: butt; stroke-dashoffset: 0; stroke-linejoin: miter; stroke-miterlimit: 4; fill: rgb(255,255,255); fill-rule: nonzero; opacity: 1;" vector-effect="non-scaling-stroke"  transform=" translate(-824.18, -268.59)" d="M 818.74405 267.29424 Q 818.96561 267.05095 819.20047 266.82124 C 819.2459 266.77236 819.29582 266.72355 819.34347 266.67695 C 823.3498793944051 262.75913067514506 829.0198236415731 261.0496495773486 834.52413 262.1 C 834.48397 261.87737000000004 834.44382 261.65471 834.39913 261.432 C 828.7624106957041 260.4378718159646 822.9920895743115 262.22157656411594 818.89963 266.22316 C 818.83608 266.2853 818.77255 266.34743000000003 818.71123 266.41184 C 818.55462 266.56943 818.40248 266.72708 818.25256 266.88698999999997 C 815.9510624323939 269.3803513265831 814.4164047732298 272.48382824167845 813.83209 275.82633 C 814.03562 275.88919999999996 814.23917 275.95207999999997 814.44497 276.01272 C 814.9991185410129 272.7501503748357 816.4932021444678 269.7201676773633 818.74405 267.29424 Z" stroke-linecap="round" />
</g>
		<g transform="matrix(1 0 0 1 220.44 -185.85)"  >
<path style="stroke: none; stroke-width: 1; stroke-dasharray: none; stroke-linecap: butt; stroke-dashoffset: 0; stroke-linejoin: miter; stroke-miterlimit: 4; fill: rgb(255,255,255); fill-rule: nonzero; opacity: 1;" vector-effect="non-scaling-stroke"  transform=" translate(-820.44, -264.15)" d="M 812.18311 261.3293 C 812.3286300000001 261.16035999999997 812.47861 260.99595999999997 812.63079 260.83380999999997 C 812.7943300000001 260.66058 812.9600800000001 260.48961999999995 813.13027 260.32318999999995 C 818.5843606225285 255.00207906766522 826.8930651984855 253.91243839378575 833.53479 257.64724999999993 C 833.45716 257.3635699999999 833.38179 257.08217999999994 833.2995900000001 256.8029599999999 C 826.4859293452355 253.2747932412863 818.1781286729708 254.5106545230052 812.6864700000001 259.86934999999994 C 812.51628 260.03576999999996 812.3483100000001 260.20446999999996 812.1892600000001 260.37773999999996 C 812.0325900000001 260.53983999999997 811.8826100000001 260.70424999999994 811.7348800000001 260.87091999999996 C 808.7718676025078 264.2593731613463 807.2072588771574 268.6472123442743 807.3578800000001 273.14591999999993 C 807.5697500000001 273.2672299999999 807.7861900000001 273.3796299999999 808.0048800000002 273.4942899999999 C 807.7627711682264 269.0502528571016 809.2614884300172 264.68671123720236 812.18311 261.3293 Z" stroke-linecap="round" />
</g>
		<g transform="matrix(1 0 0 1 -203.16 -109.45)"  >
<path style="stroke: none; stroke-width: 1; stroke-dasharray: none; stroke-linecap: butt; stroke-dashoffset: 0; stroke-linejoin: miter; stroke-miterlimit: 4; fill: rgb(240,240,240); fill-rule: nonzero; opacity: 1;" vector-effect="non-scaling-stroke"  transform=" translate(-396.84, -340.55)" d="M 391.15284 356.11505 L 391.73262000000005 345.08063 L 394.6924900000001 357.34799 C 404.7849800000001 360.38871 416.3140400000001 360.27205 416.3140400000001 360.27205 C 416.3140400000001 360.27205 417.0934700000001 336.36704999999995 407.9998500000001 327.06763 C 398.9062300000001 317.76821000000007 390.20276000000007 319.92724 383.3831400000001 326.59595 C 376.5636400000001 333.26455000000004 374.2104500000001 341.91754000000003 383.3040700000001 351.21695 C 385.5583754154095 353.3685207558988 388.22953867550876 355.0354857407681 391.15284 356.11505 Z" stroke-linecap="round" />
</g>
		<g transform="matrix(1 0 0 1 -200.12 -105.68)"  >
<path style="stroke: none; stroke-width: 1; stroke-dasharray: none; stroke-linecap: butt; stroke-dashoffset: 0; stroke-linejoin: miter; stroke-miterlimit: 4; fill: rgb(255,255,255); fill-rule: nonzero; opacity: 1;" vector-effect="non-scaling-stroke"  transform=" translate(-399.88, -344.32)" d="M 392.94409 343.3293 L 392.49586 342.87092 C 387.31286 337.51617 384.14625 332.48025 383.04694 327.8288 C 383.02973000000003 327.76127 383.01702 327.6938 382.99983000000003 327.62627 L 383.31483000000003 327.55348 L 383.61856 327.48731 C 384.75356 332.56111 388.43067 337.70599 392.95022 342.37773999999996 C 393.09442 342.52973999999995 393.24081 342.68399999999997 393.39175 342.83380999999997 C 395.32245 344.79456999999996 397.38875 346.66706 399.47224 348.41180999999995 C 399.63232 348.54826999999995 399.79687 348.68480999999997 399.96143 348.82126999999997 C 402.72335 351.11001999999996 405.49233 353.16992999999997 407.9575 354.90099999999995 C 408.13119 355.02414999999996 408.30714 355.14507 408.48087999999996 355.26372 C 412.66549999999995 358.17661999999996 415.89845999999994 360.0891 416.61872999999997 360.50788 C 416.70565999999997 360.56048 416.75473 360.58795 416.76588 360.5948 L 416.61021999999997 360.86688000000004 L 416.61021999999997 360.87138000000004 L 416.45228 361.14568 C 416.44113 361.13881000000003 416.27606999999995 361.04719 415.97733 360.86877000000004 C 414.8558 360.20761000000005 411.83952999999997 358.38509000000005 408.07349 355.77313000000004 C 407.90424 355.65452000000005 407.72828 355.53359000000006 407.5546 355.41046000000006 C 405.5526 354.00775000000004 403.35989 352.39646000000005 401.1398 350.62546000000003 Q 400.30224 349.95958 399.50505999999996 349.29420000000005 C 399.33824999999996 349.15991 399.17368999999997 349.02341000000007 399.01361999999995 348.88694000000004 Q 395.63486 346.0583 392.94409 343.3293 Z" stroke-linecap="round" />
</g>
		<g transform="matrix(1 0 0 1 -189.43 -95.26)"  >
<path style="stroke: none; stroke-width: 1; stroke-dasharray: none; stroke-linecap: butt; stroke-dashoffset: 0; stroke-linejoin: miter; stroke-miterlimit: 4; fill: rgb(255,255,255); fill-rule: nonzero; opacity: 1;" vector-effect="non-scaling-stroke"  transform=" translate(-410.57, -354.74)" d="M 408.07346 355.77315 C 408.20552000000004 355.60405 408.33985 355.43273 408.4809 355.26374 C 408.86330304010613 354.80416569379605 409.2689945069658 354.3644796931722 409.69638000000003 353.94640999999996 C 411.5157287021982 352.1625992409732 413.71211530902616 350.80970759739563 416.12372000000005 349.98740999999995 C 416.10143000000005 349.77394999999996 416.07911000000007 349.5604799999999 416.05687000000006 349.34252999999995 C 413.50221359378895 350.1894121627912 411.17487349593586 351.6088957199434 409.2525800000001 353.49258 C 408.7963854905354 353.93892718766085 408.36409610084047 354.4090693539 407.9575200000001 354.90103999999997 C 407.8187500000001 355.06782 407.6844200000001 355.23913999999996 407.5545700000001 355.41049999999996 C 406.47559719864563 356.8177308210625 405.61659671189966 358.38066380016966 405.00695000000013 360.04583999999994 Q 405.33638000000013 360.0899299999999 405.6523500000001 360.13383999999996 C 406.240249859187 358.568984450435 407.0560928671309 357.09955991114884 408.07346 355.77315 Z" stroke-linecap="round" />
</g>
		<g transform="matrix(1 0 0 1 -195.06 -99.41)"  >
<path style="stroke: none; stroke-width: 1; stroke-dasharray: none; stroke-linecap: butt; stroke-dashoffset: 0; stroke-linejoin: miter; stroke-miterlimit: 4; fill: rgb(255,255,255); fill-rule: nonzero; opacity: 1;" vector-effect="non-scaling-stroke"  transform=" translate(-404.94, -350.59)" d="M 399.505 349.29424 Q 399.72656 349.05095 399.96142 348.82124 C 400.00685999999996 348.77236 400.05677 348.72355 400.10441999999995 348.67695 C 404.1108360150776 344.7591210648312 409.7807939594984 343.0496392156059 415.28511 344.1 C 415.24496 343.87737000000004 415.2048 343.65471 415.16015999999996 343.432 C 409.52344069570404 342.4378718159646 403.7531195743114 344.22157656411594 399.66065999999995 348.22316 C 399.59711999999996 348.2853 399.53358 348.34743000000003 399.47225999999995 348.41184 C 399.31564999999995 348.56943 399.16351 348.72708 399.01358999999997 348.88698999999997 C 396.71209243239383 351.3803513265831 395.1774347732298 354.48382824167845 394.59311999999994 357.82633 C 394.79664999999994 357.88919999999996 395.00019999999995 357.95207999999997 395.20599999999996 358.01272 C 395.7601258964388 354.75015927771807 397.2541812332515 351.72017752082235 399.505 349.29424 Z" stroke-linecap="round" />
</g>
		<g transform="matrix(1 0 0 1 -198.8 -103.85)"  >
<path style="stroke: none; stroke-width: 1; stroke-dasharray: none; stroke-linecap: butt; stroke-dashoffset: 0; stroke-linejoin: miter; stroke-miterlimit: 4; fill: rgb(255,255,255); fill-rule: nonzero; opacity: 1;" vector-effect="non-scaling-stroke"  transform=" translate(-401.2, -346.15)" d="M 392.94409 343.3293 C 393.08961 343.16035999999997 393.23959 342.99595999999997 393.39177 342.83380999999997 C 393.55531 342.66058 393.72106 342.48961999999995 393.89126 342.32318999999995 C 399.3453458656252 337.0020775915059 407.6540489419221 335.9124365802792 414.29577 339.64724999999993 C 414.21814 339.3635699999999 414.14277 339.08217999999994 414.06057 338.8029599999999 C 407.2469093452354 335.2747932412863 398.93910867297075 336.5106545230052 393.44745 341.86934999999994 C 393.27726 342.03576999999996 393.10929 342.20446999999996 392.95024 342.37773999999996 C 392.79357 342.53983999999997 392.64359 342.70424999999994 392.49586 342.87091999999996 C 389.5328476025077 346.2593731613463 387.96823887715726 350.6472123442743 388.11886 355.14591999999993 C 388.33072999999996 355.2672299999999 388.54717 355.3796299999999 388.76586 355.4942899999999 C 388.5237511682262 351.0502528571016 390.022468430017 346.68671123720236 392.94409 343.3293 Z" stroke-linecap="round" />
</g>
		<g transform="matrix(1 0 0 1 -133.16 -249.45)"  >
<path style="stroke: none; stroke-width: 1; stroke-dasharray: none; stroke-linecap: butt; stroke-dashoffset: 0; stroke-linejoin: miter; stroke-miterlimit: 4; fill: rgb(240,240,240); fill-rule: nonzero; opacity: 1;" vector-effect="non-scaling-stroke"  transform=" translate(-466.84, -200.55)" d="M 461.15284 216.11505 L 461.73262000000005 205.08062999999999 L 464.6924900000001 217.34798999999998 C 474.7849800000001 220.38870999999997 486.3140400000001 220.27204999999998 486.3140400000001 220.27204999999998 C 486.3140400000001 220.27204999999998 487.0934700000001 196.36704999999998 477.9998500000001 187.06762999999998 C 468.9062300000001 177.76820999999998 460.20276000000007 179.92723999999998 453.3831400000001 186.59595 C 446.5636400000001 193.26454999999999 444.2104500000001 201.91753999999997 453.3040700000001 211.21695 C 455.5583754154095 213.3685207558988 458.22953867550876 215.03548574076805 461.15284 216.11505 Z" stroke-linecap="round" />
</g>
		<g transform="matrix(1 0 0 1 -130.12 -245.68)"  >
<path style="stroke: none; stroke-width: 1; stroke-dasharray: none; stroke-linecap: butt; stroke-dashoffset: 0; stroke-linejoin: miter; stroke-miterlimit: 4; fill: rgb(255,255,255); fill-rule: nonzero; opacity: 1;" vector-effect="non-scaling-stroke"  transform=" translate(-469.88, -204.32)" d="M 462.94409 203.3293 L 462.49586 202.87091999999998 C 457.31286 197.51617 454.14625 192.48024999999998 453.04694 187.82879999999997 C 453.02973000000003 187.76126999999997 453.01702 187.69379999999998 452.99983000000003 187.62626999999998 L 453.31483000000003 187.55347999999998 L 453.61856 187.48730999999998 C 454.75356 192.56110999999999 458.43067 197.70598999999999 462.95022 202.37774 C 463.09442 202.52973999999998 463.24081 202.684 463.39175 202.83381 C 465.32245 204.79457 467.38875 206.66706 469.47224 208.41181 C 469.63232 208.54827 469.79687 208.68481 469.96143 208.82127 C 472.72335 211.11002 475.49233 213.16993 477.9575 214.901 C 478.13119 215.02415000000002 478.30714 215.14507 478.48087999999996 215.26372 C 482.66549999999995 218.17662 485.89845999999994 220.0891 486.61872999999997 220.50788 C 486.70565999999997 220.56048 486.75473 220.58795 486.76588 220.5948 L 486.61021999999997 220.86687999999998 L 486.61021999999997 220.87138 L 486.45228 221.14568 C 486.44113 221.13881 486.27606999999995 221.04719 485.97733 220.86877 C 484.8558 220.20761000000002 481.83952999999997 218.38509000000002 478.07349 215.77313 C 477.90424 215.65452000000002 477.72828 215.53359 477.5546 215.41046 C 475.5526 214.00775 473.35989 212.39646 471.1398 210.62546 Q 470.30224 209.95958000000002 469.50505999999996 209.29420000000002 C 469.33824999999996 209.15991000000002 469.17368999999997 209.02341 469.01361999999995 208.88694 Q 465.63486 206.0583 462.94409 203.3293 Z" stroke-linecap="round" />
</g>
		<g transform="matrix(1 0 0 1 -119.43 -235.26)"  >
<path style="stroke: none; stroke-width: 1; stroke-dasharray: none; stroke-linecap: butt; stroke-dashoffset: 0; stroke-linejoin: miter; stroke-miterlimit: 4; fill: rgb(255,255,255); fill-rule: nonzero; opacity: 1;" vector-effect="non-scaling-stroke"  transform=" translate(-480.57, -214.74)" d="M 478.07346 215.77315 C 478.20552000000004 215.60405 478.33985 215.43273 478.4809 215.26373999999998 C 478.86330304010613 214.80416569379605 479.2689945069658 214.36447969317223 479.69638000000003 213.94641 C 481.5157287021982 212.1625992409732 483.71211530902616 210.80970759739566 486.12372000000005 209.98740999999998 C 486.10143000000005 209.77394999999999 486.07911000000007 209.56047999999998 486.05687000000006 209.34252999999998 C 483.50221826468504 210.18939757320317 481.1748785641298 211.60886378603422 479.2525800000001 213.49253 C 478.7963854905354 213.93887718766086 478.36409610084047 214.40901935390005 477.9575200000001 214.90098999999998 C 477.8187500000001 215.06776999999997 477.6844200000001 215.23908999999998 477.5545700000001 215.41044999999997 C 476.47559719864563 216.81768082106254 475.61659671189966 218.38061380016967 475.00695000000013 220.04578999999998 Q 475.33638000000013 220.08987 475.6523500000001 220.13378999999998 C 476.2402543019954 218.56895194200777 477.0560971538826 217.09954453232635 478.07346 215.77315 Z" stroke-linecap="round" />
</g>
		<g transform="matrix(1 0 0 1 -125.06 -239.41)"  >
<path style="stroke: none; stroke-width: 1; stroke-dasharray: none; stroke-linecap: butt; stroke-dashoffset: 0; stroke-linejoin: miter; stroke-miterlimit: 4; fill: rgb(255,255,255); fill-rule: nonzero; opacity: 1;" vector-effect="non-scaling-stroke"  transform=" translate(-474.94, -210.59)" d="M 469.505 209.29424 Q 469.72656 209.05095 469.96142 208.82129 C 470.00685999999996 208.77241 470.05677 208.7236 470.10441999999995 208.677 C 474.11081761039634 204.75916585364212 479.7807585442027 203.04966595383334 485.28506999999996 204.1 C 485.24492 203.87736999999998 485.20475999999996 203.65471 485.16011999999995 203.432 C 479.523400695704 202.43787181596457 473.7530795743114 204.2215765641159 469.66061999999994 208.22315999999998 C 469.59707999999995 208.28529999999998 469.53353999999996 208.34742999999997 469.47221999999994 208.41183999999998 C 469.31560999999994 208.56942999999998 469.16346999999996 208.72707999999997 469.01354999999995 208.88699 C 466.7120524323938 211.3803513265831 465.17739477322976 214.48382824167845 464.59307999999993 217.82632999999998 C 464.79660999999993 217.8892 465.00015999999994 217.95208 465.20595999999995 218.01271999999997 C 465.7600972187337 214.75015482628618 467.2541666888642 211.72017259910442 469.505 209.29424 Z" stroke-linecap="round" />
</g>
		<g transform="matrix(1 0 0 1 -128.8 -243.85)"  >
<path style="stroke: none; stroke-width: 1; stroke-dasharray: none; stroke-linecap: butt; stroke-dashoffset: 0; stroke-linejoin: miter; stroke-miterlimit: 4; fill: rgb(255,255,255); fill-rule: nonzero; opacity: 1;" vector-effect="non-scaling-stroke"  transform=" translate(-471.2, -206.15)" d="M 462.94409 203.3293 C 463.08961 203.16036 463.23959 202.99596 463.39177 202.83381 C 463.55531 202.66058 463.72106 202.48962 463.89126 202.32319 C 469.3453458656252 197.00207759150598 477.6540489419221 195.91243658027926 484.29577 199.64725 C 484.21814 199.36357 484.14277 199.08218000000002 484.06057 198.80296 C 477.2469093452354 195.27479324128637 468.93910867297075 196.5106545230053 463.44745 201.86935000000003 C 463.27726 202.03577 463.10929 202.20447000000001 462.95024 202.37774000000002 C 462.79357 202.53984000000003 462.64359 202.70425000000003 462.49586 202.87092 C 459.5328476025077 206.25937316134633 457.96823887715726 210.64721234427435 458.11886 215.14592000000002 C 458.33072999999996 215.26723 458.54717 215.37963000000002 458.76586 215.49429 C 458.5237511682262 211.05025285710167 460.022468430017 206.6867112372024 462.94409 203.3293 Z" stroke-linecap="round" />
</g>
		<g transform="matrix(1 0 0 1 -342.76 276.98)"  >
<path style="stroke: none; stroke-width: 1; stroke-dasharray: none; stroke-linecap: butt; stroke-dashoffset: 0; stroke-linejoin: miter; stroke-miterlimit: 4; fill: rgb(240,240,240); fill-rule: nonzero; opacity: 1;" vector-effect="non-scaling-stroke"  transform=" translate(-257.24, -726.98)" d="M 301.67379 718.17606 L 277.72555 740.22327 L 296.75778 708.28872 C 281.76319 681.09716 257.2397 657.597 257.2397 657.597 C 257.2397 657.597 206.362 706.34187 206.362 744.65849 C 206.362 782.9751100000001 229.14059 796.3538500000001 257.23969 796.3538500000001 C 285.33834 796.3538500000001 308.11693 782.9751200000001 308.11693 744.65849 C 308.11694 736.13 305.59273 727.08531 301.67379 718.17606 Z" stroke-linecap="round" />
</g>
		<g transform="matrix(1 0 0 1 -335.74 275.22)"  >
<path style="stroke: none; stroke-width: 1; stroke-dasharray: none; stroke-linecap: butt; stroke-dashoffset: 0; stroke-linejoin: miter; stroke-miterlimit: 4; fill: rgb(255,255,255); fill-rule: nonzero; opacity: 1;" vector-effect="non-scaling-stroke"  transform=" translate(-264.26, -725.22)" d="M 271.56673 741.41684 L 271.56673 743.30548 C 271.45454 765.25916 267.752 782.38824 260.48709 794.44962 C 260.38425 794.62727 260.27209000000005 794.79556 260.16916000000003 794.97321 L 259.35572 794.4777 L 258.57972 793.99148 C 266.63936 780.96703 269.49108 762.55702 269.59391 743.4083800000001 C 269.60327 742.7912500000001 269.61262999999997 742.1648200000001 269.60327 741.5383800000001 C 269.57519 733.43195 269.07968 725.2321000000001 268.28495 717.2659400000001 C 268.22886 716.6488100000001 268.16339999999997 716.0223800000001 268.09794999999997 715.3959400000001 C 266.99467 704.8866300000001 265.40516999999994 694.84481 263.77828999999997 686.1213100000001 C 263.6661 685.5041800000001 263.54454 684.8871100000001 263.42298999999997 684.2793100000001 C 260.60864999999995 669.5251500000002 257.73821 658.8381800000001 257.08371 656.4726200000001 C 257.00894999999997 656.1827800000001 256.96215 656.0238400000001 256.95279 655.9864600000001 L 257.84105 655.734 L 257.85041 655.72464 L 258.74802 655.47217 C 258.75738 655.50961 258.91631 656.04256 259.17808 657.03365 C 260.17853 660.73619 262.77784 670.7873599999999 265.33035 684.04556 C 265.44255 684.64397 265.5641 685.2611 265.67635 685.8781700000001 C 267.00402 692.9560700000001 268.30368 700.86617 269.3322 709.1688200000001 Q 269.72485 712.2964400000001 270.03345 715.3398200000001 C 270.10821000000004 715.9662500000002 270.17366000000004 716.5926800000002 270.22976 717.2098200000001 Q 271.52 730.12682 271.56673 741.41684 Z" stroke-linecap="round" />
</g>
		<g transform="matrix(1 0 0 1 -342.07 233.04)"  >
<path style="stroke: none; stroke-width: 1; stroke-dasharray: none; stroke-linecap: butt; stroke-dashoffset: 0; stroke-linejoin: miter; stroke-miterlimit: 4; fill: rgb(255,255,255); fill-rule: nonzero; opacity: 1;" vector-effect="non-scaling-stroke"  transform=" translate(-257.93, -683.04)" d="M 265.33034 684.04561 C 264.70390999999995 684.12979 264.06813 684.21396 263.42298 684.27936 C 261.67096933937256 684.4597261285633 259.9108703381647 684.5502380293076 258.1496 684.55054 C 250.6435404891946 684.5605015494218 243.23088049989357 682.8862683365523 236.45775000000003 679.6511899999999 C 236.06507000000002 680.14671 235.67239000000004 680.6422799999999 235.27035000000004 681.1471899999999 C 242.39539578734974 684.6251454899916 250.22101985380522 686.4288502086046 258.1496 686.4205599999999 C 260.0297870697588 686.4200409962805 261.9086332687957 686.3201684182067 263.77828 686.1213599999999 C 264.41407 686.0558999999998 265.04985999999997 685.9717199999999 265.67628 685.8782499999999 C 270.84728383872624 685.1365614993736 275.875662934128 683.6138677696898 280.58943 681.3622499999999 Q 279.98636999999997 680.59089 279.41133 679.8475599999999 C 274.94999764981617 681.932659989913 270.205118211984 683.3472793543178 265.33034 684.04561 Z" stroke-linecap="round" />
</g>
		<g transform="matrix(1 0 0 1 -338.53 255.53)"  >
<path style="stroke: none; stroke-width: 1; stroke-dasharray: none; stroke-linecap: butt; stroke-dashoffset: 0; stroke-linejoin: miter; stroke-miterlimit: 4; fill: rgb(255,255,255); fill-rule: nonzero; opacity: 1;" vector-effect="non-scaling-stroke"  transform=" translate(-261.47, -705.53)" d="M 270.03339 715.33986 Q 269.06566 715.39593 268.09794 715.3959600000001 C 267.90157999999997 715.4053200000001 267.69594 715.4053200000001 267.49953999999997 715.4053200000001 C 250.9916341066218 715.4055604450974 235.52825043219696 707.3281458979397 226.09801 693.7789200000001 C 225.72400999999996 694.33054 225.35000999999997 694.8822100000001 224.98541999999995 695.4431800000001 C 234.81026770329325 709.1467491696595 250.63788409217062 717.2746469202408 267.49953999999997 717.2753000000001 C 267.76135999999997 717.2753000000001 268.02313 717.2753000000001 268.28495 717.2659500000001 C 268.9394 717.2565900000001 269.58455 717.23787 270.2297 717.2098500000001 C 280.2127048346558 716.69847071281 289.8371708911528 713.322599474679 297.95227 707.4859000000001 C 297.65306 706.9342800000002 297.35386 706.3826100000001 297.04527 705.8310000000001 C 289.15837658158085 711.5614681593254 279.7707889078157 714.8661347329795 270.03339 715.33986 Z" stroke-linecap="round" />
</g>
		<g transform="matrix(1 0 0 1 -338.08 274.33)"  >
<path style="stroke: none; stroke-width: 1; stroke-dasharray: none; stroke-linecap: butt; stroke-dashoffset: 0; stroke-linejoin: miter; stroke-miterlimit: 4; fill: rgb(255,255,255); fill-rule: nonzero; opacity: 1;" vector-effect="non-scaling-stroke"  transform=" translate(-261.92, -724.33)" d="M 271.56673 741.41684 C 270.91228 741.47293 270.25778 741.51031 269.60327 741.5383899999999 C 268.90202 741.56639 268.20078 741.5851299999999 267.49954 741.5851299999999 C 245.0521621037933 741.5592476445827 225.30758230542833 726.7412660087946 219.01080000000002 705.19513 C 218.59004000000002 705.9525299999999 218.16929000000002 706.7005099999999 217.76725000000002 707.45786 C 224.85179460362176 728.9228669762713 244.89563068533147 743.4309979615044 267.49954 743.4550899999999 C 268.20078 743.4550899999999 268.90202000000005 743.4457299999999 269.59391000000005 743.4083599999999 C 270.25778 743.3896399999999 270.91228000000007 743.3522599999999 271.56673000000006 743.3054599999999 C 284.7866158908097 742.271275555976 297.1194898277557 736.251907163805 306.068 726.46625 C 305.87163 725.77436 305.64724 725.09183 305.42285999999996 724.39995 C 296.779611906418 734.258897095738 284.6355314770012 740.3627985404258 271.56673 741.41684 Z" stroke-linecap="round" />
</g>
		<g transform="matrix(0.75 -0.66 0.66 0.75 288.11 47.97)"  >
<ellipse style="stroke: none; stroke-width: 1; stroke-dasharray: none; stroke-linecap: butt; stroke-dashoffset: 0; stroke-linejoin: miter; stroke-miterlimit: 4; fill: rgb(228,228,228); fill-rule: nonzero; opacity: 1;" vector-effect="non-scaling-stroke"  cx="0" cy="0" rx="83.5" ry="43.5" />
</g>
		<g transform="matrix(0.66 -0.75 0.75 0.66 -258.89 47.97)"  >
<ellipse style="stroke: none; stroke-width: 1; stroke-dasharray: none; stroke-linecap: butt; stroke-dashoffset: 0; stroke-linejoin: miter; stroke-miterlimit: 4; fill: rgb(228,228,228); fill-rule: nonzero; opacity: 1;" vector-effect="non-scaling-stroke"  cx="0" cy="0" rx="43.5" ry="83.5" />
</g>
		<g transform="matrix(1 0 0 1 -117.89 301.97)"  >
<ellipse style="stroke: none; stroke-width: 1; stroke-dasharray: none; stroke-linecap: butt; stroke-dashoffset: 0; stroke-linejoin: miter; stroke-miterlimit: 4; fill: rgb(228,228,228); fill-rule: nonzero; opacity: 1;" vector-effect="non-scaling-stroke"  cx="0" cy="0" rx="83.5" ry="43.5" />
</g>
		<g transform="matrix(1 0 0 1 147.11 301.97)"  >
<ellipse style="stroke: none; stroke-width: 1; stroke-dasharray: none; stroke-linecap: butt; stroke-dashoffset: 0; stroke-linejoin: miter; stroke-miterlimit: 4; fill: rgb(228,228,228); fill-rule: nonzero; opacity: 1;" vector-effect="non-scaling-stroke"  cx="0" cy="0" rx="83.5" ry="43.5" />
</g>
		<g transform="matrix(1 0 0 1 14.61 80.47)"  >
<path style="stroke: none; stroke-width: 1; stroke-dasharray: none; stroke-linecap: butt; stroke-dashoffset: 0; stroke-linejoin: miter; stroke-miterlimit: 4; fill: rgb(63,61,86); fill-rule: nonzero; opacity: 1;" vector-effect="non-scaling-stroke"  transform=" translate(-614.61, -530.47)" d="M 614.61024 735.47222 C 501.57287999999994 735.47222 409.61024 643.50982 409.61024 530.47222 C 409.61024 417.43462 501.57287999999994 325.47222 614.61024 325.47222 C 727.6476 325.47222 819.61024 417.43462 819.61024 530.47222 C 819.61024 643.50982 727.64759 735.47222 614.61024 735.47222 Z M 614.61024 327.47222 C 502.67566999999997 327.47222 411.61024 418.53765 411.61024 530.47222 C 411.61024 642.40679 502.67566999999997 733.47222 614.61024 733.47222 C 726.54481 733.47222 817.61024 642.40679 817.61024 530.47222 C 817.61024 418.53765 726.54481 327.47222 614.61024 327.47222 Z" stroke-linecap="round" />
</g>
		<g transform="matrix(1 0 0 1 6.1 141.19)"  >
<path style="stroke: none; stroke-width: 1; stroke-dasharray: none; stroke-linecap: butt; stroke-dashoffset: 0; stroke-linejoin: miter; stroke-miterlimit: 4; fill: rgb(240,240,240); fill-rule: nonzero; opacity: 1;" vector-effect="non-scaling-stroke"  transform=" translate(-606.1, -591.19)" d="M 564.63663 667.01251 C 479.09847876377523 637.5801498730056 428.5689653309356 549.3637320354375 446.457 460.6898499999999 C 415.131033617805 523.4568266120078 423.0254826918582 598.6910747194786 466.6981433136463 653.588326353826 C 510.3708039354344 708.4855779881735 581.9039121122994 733.0930737777949 650.1070019555186 716.6812469864682 C 718.3100917987379 700.2694201951414 770.8180827004389 645.8137014325894 784.736 577.05833 C 744.2860390303144 657.9709005177832 650.179166702248 696.4321943081103 564.63663 667.01251 Z" stroke-linecap="round" />
</g>
		<g transform="matrix(1 0 0 1 -45.77 39.65)"  >
<path style="stroke: none; stroke-width: 1; stroke-dasharray: none; stroke-linecap: butt; stroke-dashoffset: 0; stroke-linejoin: miter; stroke-miterlimit: 4; fill: rgb(63,61,86); fill-rule: nonzero; opacity: 1;" vector-effect="non-scaling-stroke"  transform=" translate(-554.23, -489.65)" d="M 554.23231 514.13531 C 543.85487 514.13531 535.41224 503.14947 535.41224 489.64556 C 535.41224 476.14164999999997 543.85487 465.15533 554.23231 465.15533 C 564.60975 465.15533 573.05237 476.14166 573.05237 489.64556 C 573.05237 503.14946 564.60975 514.13531 554.23231 514.13531 Z" stroke-linecap="round" />
</g>
		<g transform="matrix(1 0 0 1 68.23 39.65)"  >
<path style="stroke: none; stroke-width: 1; stroke-dasharray: none; stroke-linecap: butt; stroke-dashoffset: 0; stroke-linejoin: miter; stroke-miterlimit: 4; fill: rgb(63,61,86); fill-rule: nonzero; opacity: 1;" vector-effect="non-scaling-stroke"  transform=" translate(-668.23, -489.65)" d="M 668.23231 514.13531 C 657.85487 514.13531 649.41224 503.14947 649.41224 489.64556 C 649.41224 476.14164999999997 657.85487 465.15533 668.23231 465.15533 C 678.60975 465.15533 687.05237 476.14166 687.05237 489.64556 C 687.05237 503.14946 678.60975 514.13531 668.23231 514.13531 Z" stroke-linecap="round" />
</g>
		<g transform="matrix(1 0 0 1 1.61 -324.53)"  >
<ellipse style="stroke: none; stroke-width: 1; stroke-dasharray: none; stroke-linecap: butt; stroke-dashoffset: 0; stroke-linejoin: miter; stroke-miterlimit: 4; fill: rgb(47,46,65); fill-rule: nonzero; opacity: 1;" vector-effect="non-scaling-stroke"  cx="0" cy="0" rx="18" ry="13" />
</g>
		<g transform="matrix(1 0 0 1 1.61 -339.53)"  >
<ellipse style="stroke: none; stroke-width: 1; stroke-dasharray: none; stroke-linecap: butt; stroke-dashoffset: 0; stroke-linejoin: miter; stroke-miterlimit: 4; fill: rgb(47,46,65); fill-rule: nonzero; opacity: 1;" vector-effect="non-scaling-stroke"  cx="0" cy="0" rx="11" ry="7.94444" />
</g>
		<g transform="matrix(1 0 0 1 -6.4 -324.27)"  >
<path style="stroke: none; stroke-width: 1; stroke-dasharray: none; stroke-linecap: butt; stroke-dashoffset: 0; stroke-linejoin: miter; stroke-miterlimit: 4; fill: rgb(47,46,65); fill-rule: nonzero; opacity: 1;" vector-effect="non-scaling-stroke"  transform=" translate(-593.6, -125.73)" d="M 588.66569 130.66677 C 582.47402 124.47509000000001 580.51446 116.12706000000001 583.6030400000001 110.75487000000001 C 582.8691617605667 111.1731287432048 582.1938316427287 111.68662200136428 581.5946200000001 112.28199000000001 C 576.51782 117.3588 578.1008700000001 127.17299000000001 585.13016 134.2023 C 592.15979 141.23194 601.97366 142.81464 607.05047 137.73783 C 607.6458400566394 137.13862629801287 608.1593305684299 136.46329873235925 608.57758 135.72942 C 603.2054 138.818 594.85737 136.85844 588.66569 130.66677 Z" stroke-linecap="round" />
</g>
		<g transform="matrix(1 0 0 1 -166.58 -17.5)"  >
<polygon style="stroke: none; stroke-width: 1; stroke-dasharray: none; stroke-linecap: butt; stroke-dashoffset: 0; stroke-linejoin: miter; stroke-miterlimit: 4; fill: rgb(255,182,182); fill-rule: nonzero; opacity: 1;" vector-effect="non-scaling-stroke"  points="-17.1,19.94 -23.42,9.44 14.09,-19.94 23.42,-4.44 -17.1,19.94 " />
</g>
		<g transform="matrix(1 0 0 1 -195.63 -6.92)"  >
<path style="stroke: none; stroke-width: 1; stroke-dasharray: none; stroke-linecap: butt; stroke-dashoffset: 0; stroke-linejoin: miter; stroke-miterlimit: 4; fill: rgb(47,46,65); fill-rule: nonzero; opacity: 1;" vector-effect="non-scaling-stroke"  transform=" translate(-404.37, -443.08)" d="M 407.7552 461.24731 L 387.36883 427.37879000000004 L 387.7972 427.12092 C 395.07764087795226 422.7389485292032 404.53185991144437 425.0880080191115 408.91470999999996 432.36792 L 408.91520999999995 432.36876 L 421.36643999999995 453.05454000000003 Z" stroke-linecap="round" />
</g>
		<g transform="matrix(1 0 0 1 194.35 -31.5)"  >
<polygon style="stroke: none; stroke-width: 1; stroke-dasharray: none; stroke-linecap: butt; stroke-dashoffset: 0; stroke-linejoin: miter; stroke-miterlimit: 4; fill: rgb(255,182,182); fill-rule: nonzero; opacity: 1;" vector-effect="non-scaling-stroke"  points="17.1,19.94 23.42,9.44 -14.09,-19.94 -23.42,-4.44 17.1,19.94 " />
</g>
		<g transform="matrix(1 0 0 1 223.41 -20.92)"  >
<path style="stroke: none; stroke-width: 1; stroke-dasharray: none; stroke-linecap: butt; stroke-dashoffset: 0; stroke-linejoin: miter; stroke-miterlimit: 4; fill: rgb(47,46,65); fill-rule: nonzero; opacity: 1;" vector-effect="non-scaling-stroke"  transform=" translate(-823.41, -429.08)" d="M 806.4073 439.05451 L 818.85853 418.36872999999997 L 818.8590399999999 418.36789 C 823.2418862130343 411.0879792721642 832.6961021621531 408.7389194362449 839.9765399999999 413.12089 L 840.4049099999999 413.37876 L 820.0185399999998 447.24728 Z" stroke-linecap="round" />
</g>
		<g transform="matrix(1 0 0 1 13.86 -80.13)"  >
<polygon style="stroke: none; stroke-width: 1; stroke-dasharray: none; stroke-linecap: butt; stroke-dashoffset: 0; stroke-linejoin: miter; stroke-miterlimit: 4; fill: rgb(47,46,65); fill-rule: nonzero; opacity: 1;" vector-effect="non-scaling-stroke"  points="-47.53,-71.6 -49.92,-62.07 -114.35,-10.49 -183.69,54.31 -176.25,71.61 -10.97,-39.01 175.36,57.57 183.69,38.51 98.66,-18.49 28.34,-66.98 -47.53,-71.6 " />
</g>
		<g transform="matrix(1 0 0 1 1.19 -192.56)"  >
<path style="stroke: none; stroke-width: 1; stroke-dasharray: none; stroke-linecap: butt; stroke-dashoffset: 0; stroke-linejoin: miter; stroke-miterlimit: 4; fill: rgb(108,99,255); fill-rule: nonzero; opacity: 1;" vector-effect="non-scaling-stroke"  transform=" translate(-601.19, -257.44)" d="M 588.02648 196.23581 L 560.17821 205.37267 L 563.94289 306.81367 C 563.94289 306.81367 612.3750600000001 335.89237 642.1939600000001 302.88449 L 642.1939600000001 201.422 L 625.564 196.23581 Z" stroke-linecap="round" />
</g>
		<g transform="matrix(1 0 0 1 42.3 -177.1)"  >
<path style="stroke: none; stroke-width: 1; stroke-dasharray: none; stroke-linecap: butt; stroke-dashoffset: 0; stroke-linejoin: miter; stroke-miterlimit: 4; fill: rgb(108,99,255); fill-rule: nonzero; opacity: 1;" vector-effect="non-scaling-stroke"  transform=" translate(-642.3, -272.9)" d="M 636.01286 208.3963 L 642.1939600000001 201.42199 C 642.1939600000001 201.42199 659.3792000000001 207.69943999999998 657.9460300000001 226.53798999999998 C 656.51286 245.37653999999998 646.4128900000001 305.29363 646.4128900000001 305.29363 L 644.5128900000001 344.37657 L 626.57289 344.37657 L 633.72289 243.30319000000003 Z" stroke-linecap="round" />
</g>
		<g transform="matrix(1 0 0 1 -38.28 -174.1)"  >
<path style="stroke: none; stroke-width: 1; stroke-dasharray: none; stroke-linecap: butt; stroke-dashoffset: 0; stroke-linejoin: miter; stroke-miterlimit: 4; fill: rgb(108,99,255); fill-rule: nonzero; opacity: 1;" vector-effect="non-scaling-stroke"  transform=" translate(-561.72, -275.9)" d="M 568.01286 211.3963 L 561.83176 204.42199 C 561.83176 204.42199 544.64652 210.69943999999998 546.07969 229.53798999999998 C 547.51286 248.37653999999998 557.61282 308.29363 557.61282 308.29363 L 559.51282 347.37657 L 577.4528200000001 347.37657 L 570.3028200000001 246.30319000000003 Z" stroke-linecap="round" />
</g>
		<g transform="matrix(1 0 0 1 -31.39 -97.53)"  >
<circle style="stroke: none; stroke-width: 1; stroke-dasharray: none; stroke-linecap: butt; stroke-dashoffset: 0; stroke-linejoin: miter; stroke-miterlimit: 4; fill: rgb(255,182,182); fill-rule: nonzero; opacity: 1;" vector-effect="non-scaling-stroke"  cx="0" cy="0" r="11" />
</g>
		<g transform="matrix(1 0 0 1 35.61 -97.53)"  >
<circle style="stroke: none; stroke-width: 1; stroke-dasharray: none; stroke-linecap: butt; stroke-dashoffset: 0; stroke-linejoin: miter; stroke-miterlimit: 4; fill: rgb(255,182,182); fill-rule: nonzero; opacity: 1;" vector-effect="non-scaling-stroke"  cx="0" cy="0" r="11" />
</g>
		<g transform="matrix(1 0 0 1 1.15 -292.56)"  >
<circle style="stroke: none; stroke-width: 1; stroke-dasharray: none; stroke-linecap: butt; stroke-dashoffset: 0; stroke-linejoin: miter; stroke-miterlimit: 4; fill: rgb(47,46,65); fill-rule: nonzero; opacity: 1;" vector-effect="non-scaling-stroke"  cx="0" cy="0" r="30.46442" />
</g>
		<g transform="matrix(1 0 0 1 2.06 -285.65)"  >
<circle style="stroke: none; stroke-width: 1; stroke-dasharray: none; stroke-linecap: butt; stroke-dashoffset: 0; stroke-linejoin: miter; stroke-miterlimit: 4; fill: rgb(255,182,182); fill-rule: nonzero; opacity: 1;" vector-effect="non-scaling-stroke"  cx="0" cy="0" r="24.56103" />
</g>
		<g transform="matrix(1 0 0 1 0.2 -302.31)"  >
<path style="stroke: none; stroke-width: 1; stroke-dasharray: none; stroke-linecap: butt; stroke-dashoffset: 0; stroke-linejoin: miter; stroke-miterlimit: 4; fill: rgb(47,46,65); fill-rule: nonzero; opacity: 1;" vector-effect="non-scaling-stroke"  transform=" translate(-600.2, -147.69)" d="M 576.25574 148.90224 C 581.8682962941083 152.77059409370904 588.5299539647413 154.8293358990341 595.34642 154.80209 C 592.9149010787784 156.48804743261795 590.1467998532204 157.6268650354991 587.23281 158.14009 C 596.295817968438 160.0841507708371 605.6625291390451 160.13677851961458 614.74681 158.29467999999997 C 616.76608664356 157.9708993222613 618.7145006304 157.30170518616814 620.50659 156.31645 C 622.3126432239654 155.3078119196166 623.6050849909107 153.57931042639612 624.0618 151.56174000000001 C 624.66545 148.11322 621.9783199999999 144.98017000000002 619.1858 142.86867 C 610.5277469374709 136.42194720707036 599.4320296990161 134.20471346830635 588.96134 136.82898 C 585.58507 137.7017 582.20282 139.17625 580.0098399999999 141.88764 C 577.8168599999999 144.59903 577.1672699999999 148.77914 579.2566199999999 151.57117 Z" stroke-linecap="round" />
</g>
		<g transform="matrix(1 0 0 1 0 346.47)"  >
<path style="stroke: none; stroke-width: 1; stroke-dasharray: none; stroke-linecap: butt; stroke-dashoffset: 0; stroke-linejoin: miter; stroke-miterlimit: 4; fill: rgb(63,61,86); fill-rule: nonzero; opacity: 1;" vector-effect="non-scaling-stroke"  transform=" translate(-600, -796.47)" d="M 1010 797.47222 L 190 797.47222 C 189.4477152501692 797.47222 189 797.0245047498308 189 796.47222 C 189 795.9199352501691 189.4477152501692 795.47222 190 795.47222 L 1010 795.47222 C 1010.5522847498308 795.47222 1011 795.9199352501691 1011 796.47222 C 1011 797.0245047498308 1010.5522847498308 797.47222 1010 797.47222 Z" stroke-linecap="round" />
</g>
		<g transform="matrix(1 0 0 1 11.61 174.47)"  >
<path style="stroke: none; stroke-width: 1; stroke-dasharray: none; stroke-linecap: butt; stroke-dashoffset: 0; stroke-linejoin: miter; stroke-miterlimit: 4; fill: rgb(63,61,86); fill-rule: nonzero; opacity: 1;" vector-effect="non-scaling-stroke"  transform=" translate(-611.61, -624.47)" d="M 583.61024 610.47222 C 583.61024 625.9361929952622 596.1462670047378 638.47222 611.61024 638.47222 C 627.0742129952622 638.47222 639.61024 625.9361929952622 639.61024 610.47222 Z" stroke-linecap="round" />
</g>
		<g transform="matrix(1 0 0 1 114.73 101.47)"  >
<circle style="stroke: none; stroke-width: 1; stroke-dasharray: none; stroke-linecap: butt; stroke-dashoffset: 0; stroke-linejoin: miter; stroke-miterlimit: 4; fill: rgb(240,240,240); fill-rule: nonzero; opacity: 1;" vector-effect="non-scaling-stroke"  cx="0" cy="0" r="24" />
</g>
		<g transform="matrix(1 0 0 1 -92.27 101.47)"  >
<circle style="stroke: none; stroke-width: 1; stroke-dasharray: none; stroke-linecap: butt; stroke-dashoffset: 0; stroke-linejoin: miter; stroke-miterlimit: 4; fill: rgb(240,240,240); fill-rule: nonzero; opacity: 1;" vector-effect="non-scaling-stroke"  cx="0" cy="0" r="24" />
</g>
</g>
</g>
<g transform="matrix(1 0 0 1 561.6 915.34)" style="" id="f5d283dc-2031-4d64-8eaa-211aa5b830a8"  >
		<text xml:space="preserve" font-family="sans-serif" font-size="45" font-style="bold" font-weight="550" style="stroke: none; stroke-width: 2; stroke-dasharray: none; stroke-linecap: butt; stroke-dashoffset: 0; stroke-linejoin: miter; stroke-miterlimit: 4; fill: rgb(72,63,207); fill-rule: nonzero; opacity: 1; white-space: pre;" ><tspan x="-179.98" y="14.14" >N</tspan><tspan x="-146.81" y="14.14" >o</tspan><tspan x="-123.64" y="14.14" style="white-space: pre; "> </tspan><tspan x="-111.71" y="14.14" >D</tspan><tspan x="-78.54" y="14.14" >a</tspan><tspan x="-55.36" y="14.14" >t</tspan><tspan x="-39.7" y="14.14" >a</tspan><tspan x="-16.53" y="14.14" style="white-space: pre; "> </tspan><tspan x="-4.6" y="14.14" >A</tspan><tspan x="25.25" y="14.14" >v</tspan><tspan x="48.43" y="14.14" >a</tspan><tspan x="71.6" y="14.14" >i</tspan><tspan x="84.78" y="14.14" >l</tspan><tspan x="97.96" y="14.14" >a</tspan><tspan x="121.13" y="14.14" >b</tspan><tspan x="146.83" y="14.14" >l</tspan><tspan x="160.01" y="14.14" >e</tspan></text>
</g>
</svg>